<?xml version="1.0"?>
<svg xmlns="http://www.w3.org/2000/svg" viewBox="0 0 50 50">
    <path style="text-indent:0;text-align:start;line-height:normal;text-transform:none;block-progression:tb;-inkscape-font-specification:Sans" d="M 20.90625 3 A 1.0001 1.0001 0 0 0 20 4 L 20 46 A 1.0001 1.0001 0 0 0 21 47 L 47 47 A 1.0001 1.0001 0 0 0 48 46 L 48 4 A 1.0001 1.0001 0 0 0 48 3.90625 A 1.0001 1.0001 0 0 0 47 3 L 21 3 A 1.0001 1.0001 0 0 0 20.90625 3 z M 22 5 L 46 5 L 46 45 L 22 45 L 22 5 z M 10.8125 7 A 1.0001 1.0001 0 0 0 10 8 L 10 42 A 1.0001 1.0001 0 0 0 11 43 L 18 43 L 18 41 L 12 41 L 12 9 L 18 9 L 18 7 L 11 7 A 1.0001 1.0001 0 0 0 10.90625 7 A 1.0001 1.0001 0 0 0 10.8125 7 z M 2.8125 11 A 1.0001 1.0001 0 0 0 2 12 L 2 38 A 1.0001 1.0001 0 0 0 3 39 L 8 39 L 8 37 L 4 37 L 4 13 L 8 13 L 8 11 L 3 11 A 1.0001 1.0001 0 0 0 2.90625 11 A 1.0001 1.0001 0 0 0 2.8125 11 z" overflow="visible" font-family="Sans"/>
</svg>
